<?xml version="1.0" standalone="no"?>
<!DOCTYPE svg PUBLIC "-//W3C//DTD SVG 20010904//EN"
 "http://www.w3.org/TR/2001/REC-SVG-20010904/DTD/svg10.dtd">
<svg version="1.0" xmlns="http://www.w3.org/2000/svg"
 width="512.000000pt" height="512.000000pt" viewBox="0 0 512.000000 512.000000"
 preserveAspectRatio="xMidYMid meet">
<metadata>
Created by potrace 1.16, written by Peter Selinger 2001-2019
</metadata>
<g transform="translate(0.000000,512.000000) scale(0.100000,-0.100000)"
fill="#000000" stroke="none">
<path d="M700 5089 c-52 -11 -97 -24 -100 -28 -3 -5 -21 -13 -41 -20 -20 -6
-57 -25 -83 -41 -26 -17 -50 -30 -54 -30 -6 0 -29 -17 -90 -70 -13 -11 -28
-20 -32 -20 -10 0 -60 -47 -60 -57 0 -4 -19 -30 -60 -80 -6 -7 -20 -30 -32
-50 -12 -21 -25 -40 -28 -43 -11 -8 -40 -72 -40 -86 0 -7 -6 -17 -13 -21 -16
-10 -44 -126 -58 -236 -6 -52 -9 -717 -7 -1817 l3 -1735 24 -85 c13 -47 27
-86 32 -88 5 -2 9 -9 9 -15 1 -7 9 -30 20 -52 10 -22 16 -43 14 -47 -3 -5 1
-8 9 -8 8 0 20 -12 25 -27 6 -16 22 -41 36 -57 14 -15 31 -41 38 -57 7 -16 20
-31 28 -34 8 -3 35 -25 59 -50 24 -25 48 -45 53 -45 5 0 6 -6 2 -12 -4 -7 -4
-10 1 -6 4 4 20 -1 35 -12 16 -11 33 -20 39 -20 5 0 14 -6 18 -14 8 -14 97
-56 118 -56 7 0 15 -6 18 -14 3 -7 20 -16 39 -19 18 -4 67 -13 108 -22 65 -13
303 -15 1845 -15 1848 0 1806 -1 1943 40 23 7 42 17 42 22 0 4 9 8 19 8 11 0
23 5 26 10 3 6 14 10 23 10 9 0 30 11 46 25 16 14 46 32 67 42 21 9 36 20 33
25 -3 4 -1 8 5 8 12 0 113 99 136 133 9 15 20 25 24 22 4 -2 15 14 25 35 10
22 22 40 27 40 6 0 7 5 4 10 -3 5 -2 10 3 10 5 0 20 26 33 58 12 31 27 60 31
63 5 3 19 41 31 85 l22 79 0 1825 0 1825 -23 85 c-13 46 -27 87 -31 90 -4 3
-18 31 -31 63 -13 31 -27 57 -31 57 -5 0 -16 16 -25 36 -9 20 -23 38 -31 41
-7 3 -13 11 -13 18 0 6 -22 34 -49 60 -28 27 -48 52 -45 56 2 4 -4 10 -15 14
-10 3 -30 16 -43 28 -13 12 -44 33 -69 46 -24 14 -48 30 -54 36 -5 6 -36 20
-67 30 -32 11 -58 23 -58 27 0 4 -8 8 -18 8 -10 0 -23 5 -30 12 -7 7 -12 9
-12 6 0 -3 -33 1 -72 8 -61 12 -375 14 -1838 13 -1722 0 -1767 -1 -1860 -20z
m1449 -1498 c57 -17 133 -44 170 -61 87 -41 182 -102 177 -115 -4 -11 -180
-261 -214 -304 l-19 -23 -56 32 c-278 156 -592 123 -801 -86 -132 -133 -181
-262 -180 -479 1 -113 5 -140 27 -203 70 -199 213 -340 409 -403 174 -55 347
-44 545 36 l42 17 3 156 c2 86 2 163 0 170 -3 9 -58 12 -228 12 l-224 0 0 195
0 195 433 -2 432 -3 3 -311 2 -311 -110 -149 c-295 -400 -282 -384 -320 -394
-155 -41 -188 -45 -370 -45 -143 0 -201 4 -258 18 -370 90 -661 348 -770 683
-185 564 102 1166 643 1352 160 55 207 61 410 57 131 -4 163 -8 254 -34z
m2129 -102 l3 -126 -103 -144 c-133 -185 -498 -699 -563 -792 -28 -40 -117
-165 -198 -279 -81 -114 -147 -210 -147 -213 0 -3 227 -5 505 -5 l505 0 0
-200 0 -200 -892 4 c-599 2 -892 7 -891 14 3 12 23 42 213 307 82 116 245 345
361 510 117 165 226 319 243 342 43 58 117 161 245 343 l109 155 -487 5 -486
5 -3 190 c-1 104 0 195 2 202 4 11 158 13 793 11 l788 -3 3 -126z"/>
</g>
</svg>
